# xmcd CD database file
#
# Track frame offsets:
#	150
#	23006
#	46480
#	63999
#	83843
#	107622
#
# Disc length: 1616 seconds
#
# Revision: 0
# Processed by: cddbd v1.5.1PL0 Copyright (c) Steve Scherf et al.
# Submitted via: CDex 1.51
#
DISCID=41064e06
DTITLE=cutman-booche - cutman-booche
DYEAR=2004
DGENRE=Blues
TTITLE0=Nelson.G.
TTITLE1=A Little Bird
TTITLE2=Omoiyari
TTITLE3=故郷 松の湯
TTITLE4=Repino
TTITLE5=Big Band Orchestra
EXTD=YEAR: 2004
EXTT0=
EXTT1=
EXTT2=
EXTT3=
EXTT4=
EXTT5=
PLAYORDER=
